<?xml version="1.0" standalone="no"?>
<!DOCTYPE svg PUBLIC "-//W3C//DTD SVG 20010904//EN"
 "http://www.w3.org/TR/2001/REC-SVG-20010904/DTD/svg10.dtd">
<svg version="1.0" xmlns="http://www.w3.org/2000/svg"
 width="1024.000000pt" height="1024.000000pt" viewBox="0 0 1024.000000 1024.000000"
 preserveAspectRatio="xMidYMid meet">
<metadata>
Created by potrace 1.14, written by Peter Selinger 2001-2017
</metadata>
<g transform="translate(0.000000,1024.000000) scale(0.100000,-0.100000)"
fill="#000000" stroke="none">
<path d="M5060 7710 l0 -2530 -2530 0 -2530 0 0 -60 0 -60 2530 0 2530 0 0
-2530 0 -2530 60 0 60 0 0 2530 0 2530 2530 0 2530 0 0 60 0 60 -2530 0 -2530
0 0 2530 0 2530 -60 0 -60 0 0 -2530z"/>
<path d="M7922 9470 c-116 -21 -289 -97 -417 -183 -221 -148 -481 -416 -652
-672 -192 -287 -363 -675 -447 -1011 -81 -322 -101 -680 -51 -877 74 -291 302
-589 542 -710 207 -105 509 -86 809 53 311 144 665 473 924 860 144 214 300
565 361 810 74 295 79 624 14 855 -101 362 -337 676 -600 801 -136 65 -350 97
-483 74z m234 -569 c115 -52 234 -232 274 -413 37 -172 42 -388 11 -546 -89
-458 -442 -1001 -851 -1308 -184 -138 -354 -188 -458 -135 -82 42 -163 160
-199 291 -22 79 -24 343 -4 460 39 229 109 438 226 679 151 308 309 541 506
742 205 210 370 287 495 230z"/>
<path d="M1701 9435 c-41 -35 -54 -83 -53 -197 4 -307 205 -848 554 -1491 38
-70 68 -134 66 -142 -4 -17 -133 -185 -369 -480 -219 -273 -395 -481 -552
-653 -138 -150 -167 -195 -167 -259 0 -56 17 -89 72 -140 135 -123 270 -142
405 -54 152 98 353 333 833 974 40 54 77 96 81 95 5 -2 55 -76 113 -165 314
-488 610 -844 775 -932 55 -29 70 -33 116 -29 128 11 206 134 177 278 -24 118
-111 265 -511 875 -308 469 -301 458 -292 470 55 73 301 387 470 600 390 491
520 636 672 750 82 61 111 101 117 163 6 64 -28 130 -113 220 -174 184 -305
166 -559 -78 -138 -133 -494 -584 -821 -1042 -39 -54 -73 -97 -76 -98 -8 0
-192 380 -227 470 -82 209 -124 376 -140 561 -7 72 -15 106 -31 133 -67 107
-263 195 -438 196 -62 0 -75 -3 -102 -25z"/>
<path d="M2942 4290 c-116 -21 -289 -97 -417 -183 -221 -148 -481 -416 -652
-672 -192 -287 -363 -675 -447 -1011 -81 -322 -101 -680 -51 -877 74 -291 302
-589 542 -710 207 -105 509 -86 809 53 311 144 665 473 924 860 144 214 300
565 361 810 74 295 79 624 14 855 -101 362 -337 676 -600 801 -136 65 -350 97
-483 74z m234 -569 c115 -52 234 -232 274 -413 37 -172 42 -388 11 -546 -89
-458 -442 -1001 -851 -1308 -184 -138 -354 -188 -458 -135 -82 42 -163 160
-199 291 -22 79 -24 343 -4 460 39 229 109 438 226 679 151 308 309 541 506
742 205 210 370 287 495 230z"/>
<path d="M6681 4255 c-16 -14 -35 -42 -42 -63 -18 -55 -13 -212 11 -337 56
-288 259 -783 520 -1266 45 -83 80 -156 78 -164 -4 -17 -134 -186 -369 -480
-219 -273 -395 -481 -552 -653 -138 -150 -167 -195 -167 -259 0 -56 17 -89 72
-140 135 -123 270 -142 405 -54 152 98 353 334 832 973 41 54 77 98 81 98 4 0
48 -64 98 -142 222 -349 439 -636 607 -803 147 -148 216 -190 300 -183 128 11
206 134 177 278 -24 118 -111 265 -511 875 -308 469 -301 458 -292 470 55 73
301 387 470 600 390 491 520 636 672 750 82 61 111 101 117 163 6 64 -28 130
-113 220 -174 184 -305 166 -559 -78 -138 -133 -494 -584 -821 -1042 -39 -54
-73 -97 -76 -98 -8 0 -192 381 -227 470 -83 213 -116 344 -136 529 -10 100
-18 137 -35 165 -67 107 -264 195 -438 196 -62 0 -75 -3 -102 -25z"/>
</g>
</svg>
