<?xml version="1.0" standalone="no"?>
<!DOCTYPE svg PUBLIC "-//W3C//DTD SVG 20010904//EN"
 "http://www.w3.org/TR/2001/REC-SVG-20010904/DTD/svg10.dtd">
<svg version="1.0" xmlns="http://www.w3.org/2000/svg"
 width="1024.000000pt" height="1024.000000pt" viewBox="0 0 1024.000000 1024.000000"
 preserveAspectRatio="xMidYMid meet">

<g transform="translate(0.000000,1024.000000) scale(0.100000,-0.100000)"
fill="#004b93" stroke="none">
<path d="M2735 9632 c-69 -8 -123 -79 -145 -190 -18 -89 -7 -411 19 -582 141
-916 697 -2261 1658 -4013 l114 -209 -72 -96 c-97 -130 -583 -754 -838 -1077
-749 -949 -1548 -1894 -1971 -2330 -122 -126 -180 -199 -205 -258 -20 -50 -22
-185 -2 -224 27 -51 106 -131 202 -203 265 -199 466 -230 710 -109 312 155
819 695 1515 1614 96 127 256 336 355 465 100 129 264 345 366 480 549 726
530 703 544 683 7 -10 60 -95 118 -190 687 -1116 1401 -2104 1908 -2639 239
-252 432 -409 574 -465 138 -54 255 -33 358 65 83 80 121 186 121 341 0 79 -5
105 -39 205 -107 316 -440 866 -1371 2265 -563 846 -921 1409 -906 1428 263
343 1080 1389 1361 1742 149 188 550 686 790 980 256 314 530 632 667 774 145
151 246 239 419 366 287 211 338 272 339 404 1 54 -5 78 -30 131 -83 175 -374
475 -539 555 -72 36 -136 41 -231 20 -340 -75 -757 -450 -1409 -1270 -454
-570 -1358 -1776 -1886 -2516 -57 -81 -107 -144 -111 -140 -3 3 -57 98 -119
211 -570 1042 -913 1906 -1034 2610 -26 151 -45 328 -45 425 0 114 -13 195
-41 252 -100 206 -459 403 -874 478 -54 10 -233 21 -270 17z"/>
</g>
</svg>
