<?xml version="1.0" standalone="no"?>
<!DOCTYPE svg PUBLIC "-//W3C//DTD SVG 20010904//EN"
 "http://www.w3.org/TR/2001/REC-SVG-20010904/DTD/svg10.dtd">
<svg version="1.0" xmlns="http://www.w3.org/2000/svg"
 width="1024.000000pt" height="1024.000000pt" viewBox="0 0 1024.000000 1024.000000"
 preserveAspectRatio="xMidYMid meet">

<g transform="translate(0.000000,1024.000000) scale(0.100000,-0.100000)"
fill="rgb(215,0,21)" stroke="none">
<path d="M5940 9990 c-263 -33 -511 -113 -795 -257 -660 -334 -1409 -996
-2006 -1773 -547 -711 -974 -1524 -1310 -2495 -275 -793 -410 -1548 -413
-2305 -1 -402 21 -554 129 -878 112 -336 289 -663 553 -1022 335 -455 771
-808 1180 -956 249 -90 410 -117 702 -116 557 1 1054 128 1598 408 491 252
935 589 1431 1085 847 848 1480 1898 1829 3039 176 573 255 1097 256 1685 0
454 -43 774 -156 1170 -141 494 -401 992 -741 1418 -105 131 -367 394 -479
481 -355 273 -755 442 -1188 502 -130 18 -489 26 -590 14z m499 -1750 c46 -11
109 -34 140 -50 326 -174 536 -655 608 -1394 21 -216 24 -742 5 -896 -65 -526
-235 -1057 -499 -1560 -331 -631 -743 -1201 -1188 -1645 -529 -529 -984 -814
-1420 -891 -160 -28 -259 -11 -355 62 -148 113 -269 377 -325 709 -28 171 -36
281 -36 521 1 438 56 850 177 1314 209 801 690 1819 1203 2545 190 269 345
458 551 670 355 366 588 536 838 611 97 29 192 30 301 4z"/>
</g>
</svg>
