<?xml version="1.0" standalone="no"?>
<!DOCTYPE svg PUBLIC "-//W3C//DTD SVG 20010904//EN"
 "http://www.w3.org/TR/2001/REC-SVG-20010904/DTD/svg10.dtd">
<svg version="1.0" xmlns="http://www.w3.org/2000/svg"
 width="1024.000000pt" height="1024.000000pt" viewBox="0 0 1024.000000 1024.000000"
 preserveAspectRatio="xMidYMid meet">

<g transform="translate(0.000000,1024.000000) scale(0.100000,-0.100000)"
fill="rgb(215,0,21)" stroke="none">
<path d="M6250 9673 c-334 -13 -754 -156 -1128 -386 -769 -471 -1531 -1262
-2099 -2177 -410 -660 -785 -1513 -1002 -2283 -179 -632 -281 -1322 -281
-1898 0 -322 37 -566 130 -849 204 -626 680 -1270 1170 -1585 155 -99 383
-194 551 -229 334 -68 796 -34 1211 90 560 167 1139 510 1679 995 700 629
1221 1289 1649 2089 460 858 712 1643 795 2475 23 227 20 656 -5 868 -81 680
-280 1216 -651 1759 -401 584 -869 936 -1424 1068 -201 48 -407 70 -595 63z
m295 -1148 c331 -63 637 -342 862 -784 280 -553 384 -1385 262 -2105 -127
-751 -490 -1567 -1064 -2391 -516 -741 -1263 -1455 -1829 -1751 -262 -136
-529 -213 -744 -214 -129 0 -304 52 -420 126 -210 134 -408 397 -523 693 -85
219 -139 546 -139 846 0 764 195 1590 571 2422 538 1190 1243 2172 1985 2767
409 327 734 450 1039 391z"/>
</g>
</svg>
