<?xml version="1.0" standalone="no"?>
<!DOCTYPE svg PUBLIC "-//W3C//DTD SVG 20010904//EN"
 "http://www.w3.org/TR/2001/REC-SVG-20010904/DTD/svg10.dtd">
<svg version="1.0" xmlns="http://www.w3.org/2000/svg"
 width="1024.000000pt" height="1024.000000pt" viewBox="0 0 1024.000000 1024.000000"
 preserveAspectRatio="xMidYMid meet">

<g transform="translate(0.000000,1024.000000) scale(0.100000,-0.100000)"
fill="#004b93" stroke="none">
<path d="M2479 9997 c-73 -28 -121 -107 -156 -261 -24 -104 -24 -424 0 -571
53 -322 106 -523 247 -945 282 -847 709 -1842 1266 -2952 118 -234 214 -429
214 -432 0 -27 -990 -1386 -1294 -1776 -509 -654 -784 -994 -1136 -1400 -69
-80 -137 -161 -151 -180 -15 -19 -74 -86 -133 -148 -58 -62 -113 -130 -122
-150 -25 -57 -30 -197 -10 -255 41 -121 107 -211 244 -333 164 -147 417 -298
592 -354 171 -54 392 -76 508 -49 79 18 262 114 362 190 243 184 488 447 876
939 315 400 713 949 1138 1573 60 87 109 157 111 155 2 -2 53 -86 115 -188
684 -1125 1187 -1826 1625 -2266 228 -229 365 -332 525 -393 93 -36 173 -45
268 -31 149 21 285 93 402 210 211 213 237 470 85 850 -116 289 -477 946
-1120 2035 -167 283 -342 587 -600 1039 -163 286 -186 332 -176 348 11 17 134
177 515 668 529 682 1884 2374 2001 2499 78 84 182 164 401 311 213 142 317
224 352 277 63 94 67 221 13 382 -70 207 -210 407 -486 690 -172 176 -280 262
-413 329 -87 43 -100 46 -186 50 -252 11 -565 -122 -881 -375 -316 -252 -612
-582 -1037 -1153 -335 -451 -824 -1167 -1225 -1794 -27 -43 -32 -47 -41 -30
-18 36 -149 329 -205 459 -367 862 -569 1558 -606 2095 -17 242 -19 251 -51
317 -57 116 -222 243 -439 339 -209 91 -493 180 -733 229 -242 50 -592 77
-659 52z"/>
</g>
</svg>
